<mxfile host="app.diagrams.net" modified="2023-02-13T10:33:15.739Z" agent="5.0 (Windows NT 10.0; Win64; x64) AppleWebKit/537.36 (KHTML, like Gecko) Chrome/108.0.0.0 Safari/537.36 Edg/108.0.1462.54" etag="zGjX6atpPVrzpdASqXUv" version="20.8.20" type="github">
  <diagram id="R2lEEEUBdFMjLlhIrx00" name="Page-1">
    <mxGraphModel dx="880" dy="484" grid="1" gridSize="10" guides="1" tooltips="1" connect="1" arrows="1" fold="1" page="1" pageScale="1" pageWidth="850" pageHeight="1100" math="0" shadow="0" extFonts="Permanent Marker^https://fonts.googleapis.com/css?family=Permanent+Marker">
      <root>
        <mxCell id="0" />
        <mxCell id="1" parent="0" />
        <mxCell id="RLD9JpwSGamEs7PK8gUW-1" value="date" style="ellipse;whiteSpace=wrap;html=1;fontSize=17;" vertex="1" parent="1">
          <mxGeometry x="50" y="40" width="120" height="80" as="geometry" />
        </mxCell>
        <mxCell id="RLD9JpwSGamEs7PK8gUW-2" value="score" style="ellipse;whiteSpace=wrap;html=1;fontSize=17;" vertex="1" parent="1">
          <mxGeometry x="260" y="40" width="120" height="80" as="geometry" />
        </mxCell>
        <mxCell id="RLD9JpwSGamEs7PK8gUW-3" value="team" style="rounded=0;whiteSpace=wrap;html=1;fontSize=17;" vertex="1" parent="1">
          <mxGeometry x="150" y="360" width="120" height="60" as="geometry" />
        </mxCell>
        <mxCell id="RLD9JpwSGamEs7PK8gUW-4" value="game" style="rhombus;whiteSpace=wrap;html=1;fontSize=17;" vertex="1" parent="1">
          <mxGeometry x="160" y="181" width="110" height="100" as="geometry" />
        </mxCell>
        <mxCell id="RLD9JpwSGamEs7PK8gUW-5" value="t-name" style="ellipse;whiteSpace=wrap;html=1;" vertex="1" parent="1">
          <mxGeometry x="40" y="490" width="120" height="80" as="geometry" />
        </mxCell>
        <mxCell id="RLD9JpwSGamEs7PK8gUW-6" value="city" style="ellipse;whiteSpace=wrap;html=1;fontSize=17;" vertex="1" parent="1">
          <mxGeometry x="160" y="600" width="120" height="80" as="geometry" />
        </mxCell>
        <mxCell id="RLD9JpwSGamEs7PK8gUW-7" value="cpach" style="ellipse;whiteSpace=wrap;html=1;fontSize=17;" vertex="1" parent="1">
          <mxGeometry x="280" y="490" width="120" height="80" as="geometry" />
        </mxCell>
        <mxCell id="RLD9JpwSGamEs7PK8gUW-8" value="caption" style="rhombus;whiteSpace=wrap;html=1;fontSize=17;" vertex="1" parent="1">
          <mxGeometry x="480" y="240" width="110" height="100" as="geometry" />
        </mxCell>
        <mxCell id="RLD9JpwSGamEs7PK8gUW-9" value="belongs to" style="rhombus;whiteSpace=wrap;html=1;fontSize=17;" vertex="1" parent="1">
          <mxGeometry x="480" y="450" width="110" height="100" as="geometry" />
        </mxCell>
        <mxCell id="RLD9JpwSGamEs7PK8gUW-10" value="players" style="rounded=0;whiteSpace=wrap;html=1;fontSize=17;" vertex="1" parent="1">
          <mxGeometry x="690" y="360" width="120" height="60" as="geometry" />
        </mxCell>
        <mxCell id="RLD9JpwSGamEs7PK8gUW-11" value="skill level" style="ellipse;whiteSpace=wrap;html=1;fontSize=17;" vertex="1" parent="1">
          <mxGeometry x="690" y="200" width="120" height="80" as="geometry" />
        </mxCell>
        <mxCell id="RLD9JpwSGamEs7PK8gUW-12" value="p-name&amp;nbsp;" style="ellipse;whiteSpace=wrap;html=1;fontSize=17;" vertex="1" parent="1">
          <mxGeometry x="640" y="510" width="120" height="80" as="geometry" />
        </mxCell>
        <mxCell id="RLD9JpwSGamEs7PK8gUW-13" value="position" style="ellipse;whiteSpace=wrap;html=1;fontSize=17;" vertex="1" parent="1">
          <mxGeometry x="800" y="550" width="120" height="80" as="geometry" />
        </mxCell>
        <mxCell id="RLD9JpwSGamEs7PK8gUW-14" value="log" style="rhombus;whiteSpace=wrap;html=1;fontSize=17;" vertex="1" parent="1">
          <mxGeometry x="980" y="340" width="110" height="100" as="geometry" />
        </mxCell>
        <mxCell id="RLD9JpwSGamEs7PK8gUW-15" value="injury record" style="shape=process;whiteSpace=wrap;html=1;backgroundOutline=1;fontSize=17;" vertex="1" parent="1">
          <mxGeometry x="1220" y="350" width="120" height="80" as="geometry" />
        </mxCell>
        <mxCell id="RLD9JpwSGamEs7PK8gUW-16" value="id" style="ellipse;whiteSpace=wrap;html=1;fontSize=17;" vertex="1" parent="1">
          <mxGeometry x="1120" y="500" width="120" height="80" as="geometry" />
        </mxCell>
        <mxCell id="RLD9JpwSGamEs7PK8gUW-17" value="description" style="ellipse;whiteSpace=wrap;html=1;fontSize=17;" vertex="1" parent="1">
          <mxGeometry x="1290" y="530" width="120" height="80" as="geometry" />
        </mxCell>
        <mxCell id="RLD9JpwSGamEs7PK8gUW-18" value="" style="endArrow=none;html=1;rounded=0;exitX=0.25;exitY=0;exitDx=0;exitDy=0;fontSize=17;" edge="1" parent="1" source="RLD9JpwSGamEs7PK8gUW-3">
          <mxGeometry width="50" height="50" relative="1" as="geometry">
            <mxPoint x="130" y="300" as="sourcePoint" />
            <mxPoint x="180" y="250" as="targetPoint" />
          </mxGeometry>
        </mxCell>
        <mxCell id="RLD9JpwSGamEs7PK8gUW-19" value="" style="endArrow=none;html=1;rounded=0;exitX=0.842;exitY=0;exitDx=0;exitDy=0;exitPerimeter=0;fontSize=17;" edge="1" parent="1" source="RLD9JpwSGamEs7PK8gUW-3">
          <mxGeometry width="50" height="50" relative="1" as="geometry">
            <mxPoint x="200" y="300" as="sourcePoint" />
            <mxPoint x="250" y="250" as="targetPoint" />
          </mxGeometry>
        </mxCell>
        <mxCell id="RLD9JpwSGamEs7PK8gUW-20" value="" style="endArrow=none;html=1;rounded=0;fontSize=17;" edge="1" parent="1" source="RLD9JpwSGamEs7PK8gUW-4">
          <mxGeometry width="50" height="50" relative="1" as="geometry">
            <mxPoint x="60" y="170" as="sourcePoint" />
            <mxPoint x="110" y="120" as="targetPoint" />
          </mxGeometry>
        </mxCell>
        <mxCell id="RLD9JpwSGamEs7PK8gUW-21" value="" style="endArrow=none;html=1;rounded=0;fontSize=17;" edge="1" parent="1" source="RLD9JpwSGamEs7PK8gUW-4">
          <mxGeometry width="50" height="50" relative="1" as="geometry">
            <mxPoint x="260" y="170" as="sourcePoint" />
            <mxPoint x="310" y="120" as="targetPoint" />
          </mxGeometry>
        </mxCell>
        <mxCell id="RLD9JpwSGamEs7PK8gUW-22" value="" style="endArrow=none;html=1;rounded=0;fontSize=17;" edge="1" parent="1" source="RLD9JpwSGamEs7PK8gUW-5">
          <mxGeometry width="50" height="50" relative="1" as="geometry">
            <mxPoint x="150" y="470" as="sourcePoint" />
            <mxPoint x="200" y="420" as="targetPoint" />
          </mxGeometry>
        </mxCell>
        <mxCell id="RLD9JpwSGamEs7PK8gUW-23" value="" style="endArrow=none;html=1;rounded=0;exitX=0.5;exitY=0;exitDx=0;exitDy=0;fontSize=17;" edge="1" parent="1" source="RLD9JpwSGamEs7PK8gUW-6">
          <mxGeometry width="50" height="50" relative="1" as="geometry">
            <mxPoint x="150" y="470" as="sourcePoint" />
            <mxPoint x="200" y="420" as="targetPoint" />
          </mxGeometry>
        </mxCell>
        <mxCell id="RLD9JpwSGamEs7PK8gUW-24" value="" style="endArrow=none;html=1;rounded=0;fontSize=17;" edge="1" parent="1" source="RLD9JpwSGamEs7PK8gUW-7">
          <mxGeometry width="50" height="50" relative="1" as="geometry">
            <mxPoint x="150" y="470" as="sourcePoint" />
            <mxPoint x="200" y="420" as="targetPoint" />
          </mxGeometry>
        </mxCell>
        <mxCell id="RLD9JpwSGamEs7PK8gUW-25" value="" style="endArrow=classic;html=1;rounded=0;entryX=1.008;entryY=0.383;entryDx=0;entryDy=0;entryPerimeter=0;fontSize=17;" edge="1" parent="1" target="RLD9JpwSGamEs7PK8gUW-3">
          <mxGeometry width="50" height="50" relative="1" as="geometry">
            <mxPoint x="480" y="290" as="sourcePoint" />
            <mxPoint x="530" y="240" as="targetPoint" />
          </mxGeometry>
        </mxCell>
        <mxCell id="RLD9JpwSGamEs7PK8gUW-26" value="" style="endArrow=classic;html=1;rounded=0;entryX=1;entryY=0.75;entryDx=0;entryDy=0;fontSize=17;" edge="1" parent="1" target="RLD9JpwSGamEs7PK8gUW-3">
          <mxGeometry width="50" height="50" relative="1" as="geometry">
            <mxPoint x="480" y="500" as="sourcePoint" />
            <mxPoint x="530" y="450" as="targetPoint" />
          </mxGeometry>
        </mxCell>
        <mxCell id="RLD9JpwSGamEs7PK8gUW-27" value="" style="endArrow=classic;html=1;rounded=0;entryX=0;entryY=0.25;entryDx=0;entryDy=0;fontSize=17;" edge="1" parent="1" target="RLD9JpwSGamEs7PK8gUW-10">
          <mxGeometry width="50" height="50" relative="1" as="geometry">
            <mxPoint x="590" y="290" as="sourcePoint" />
            <mxPoint x="640" y="240" as="targetPoint" />
          </mxGeometry>
        </mxCell>
        <mxCell id="RLD9JpwSGamEs7PK8gUW-28" value="" style="endArrow=none;html=1;rounded=0;exitX=0.317;exitY=0.05;exitDx=0;exitDy=0;exitPerimeter=0;fontSize=17;" edge="1" parent="1" source="RLD9JpwSGamEs7PK8gUW-12">
          <mxGeometry width="50" height="50" relative="1" as="geometry">
            <mxPoint x="680" y="470" as="sourcePoint" />
            <mxPoint x="730" y="420" as="targetPoint" />
          </mxGeometry>
        </mxCell>
        <mxCell id="RLD9JpwSGamEs7PK8gUW-29" value="" style="endArrow=none;html=1;rounded=0;fontSize=17;" edge="1" parent="1" source="RLD9JpwSGamEs7PK8gUW-13">
          <mxGeometry width="50" height="50" relative="1" as="geometry">
            <mxPoint x="720" y="470" as="sourcePoint" />
            <mxPoint x="770" y="420" as="targetPoint" />
          </mxGeometry>
        </mxCell>
        <mxCell id="RLD9JpwSGamEs7PK8gUW-30" value="" style="endArrow=none;html=1;rounded=0;exitX=0.5;exitY=0;exitDx=0;exitDy=0;fontSize=17;" edge="1" parent="1" source="RLD9JpwSGamEs7PK8gUW-16">
          <mxGeometry width="50" height="50" relative="1" as="geometry">
            <mxPoint x="1190" y="480" as="sourcePoint" />
            <mxPoint x="1240" y="430" as="targetPoint" />
          </mxGeometry>
        </mxCell>
        <mxCell id="RLD9JpwSGamEs7PK8gUW-31" value="" style="endArrow=none;html=1;rounded=0;exitX=0.5;exitY=0;exitDx=0;exitDy=0;fontSize=17;" edge="1" parent="1" source="RLD9JpwSGamEs7PK8gUW-17">
          <mxGeometry width="50" height="50" relative="1" as="geometry">
            <mxPoint x="1260" y="480" as="sourcePoint" />
            <mxPoint x="1310" y="430" as="targetPoint" />
          </mxGeometry>
        </mxCell>
        <mxCell id="RLD9JpwSGamEs7PK8gUW-32" value="" style="endArrow=none;html=1;rounded=0;exitX=1;exitY=0.5;exitDx=0;exitDy=0;entryX=0;entryY=0.5;entryDx=0;entryDy=0;fontSize=17;" edge="1" parent="1" source="RLD9JpwSGamEs7PK8gUW-14" target="RLD9JpwSGamEs7PK8gUW-15">
          <mxGeometry width="50" height="50" relative="1" as="geometry">
            <mxPoint x="1170" y="450" as="sourcePoint" />
            <mxPoint x="1220" y="400" as="targetPoint" />
          </mxGeometry>
        </mxCell>
        <mxCell id="RLD9JpwSGamEs7PK8gUW-33" value="" style="endArrow=classic;html=1;rounded=0;entryX=1;entryY=0.5;entryDx=0;entryDy=0;fontSize=17;" edge="1" parent="1" target="RLD9JpwSGamEs7PK8gUW-10">
          <mxGeometry width="50" height="50" relative="1" as="geometry">
            <mxPoint x="980" y="390" as="sourcePoint" />
            <mxPoint x="1030" y="340" as="targetPoint" />
          </mxGeometry>
        </mxCell>
        <mxCell id="RLD9JpwSGamEs7PK8gUW-34" value="" style="endArrow=none;html=1;rounded=0;exitX=0.5;exitY=0;exitDx=0;exitDy=0;fontSize=17;" edge="1" parent="1" source="RLD9JpwSGamEs7PK8gUW-10">
          <mxGeometry width="50" height="50" relative="1" as="geometry">
            <mxPoint x="700" y="330" as="sourcePoint" />
            <mxPoint x="750" y="280" as="targetPoint" />
          </mxGeometry>
        </mxCell>
        <mxCell id="RLD9JpwSGamEs7PK8gUW-35" value="" style="endArrow=none;html=1;rounded=0;exitX=1;exitY=0.5;exitDx=0;exitDy=0;fontSize=17;" edge="1" parent="1" source="RLD9JpwSGamEs7PK8gUW-9">
          <mxGeometry width="50" height="50" relative="1" as="geometry">
            <mxPoint x="640" y="450" as="sourcePoint" />
            <mxPoint x="690" y="400" as="targetPoint" />
          </mxGeometry>
        </mxCell>
      </root>
    </mxGraphModel>
  </diagram>
</mxfile>
